<svg width="45.000000" height="31.000000" viewBox="0 0 45 31" fill="none" xmlns="http://www.w3.org/2000/svg" xmlns:xlink="http://www.w3.org/1999/xlink">
	<desc>
			Created with Pixso.
	</desc>
	<defs>
		<clipPath id="clip19_12">
			<rect id="shopping-bag" rx="-0.500000" width="27.000000" height="30.000000" transform="translate(0.500000 0.500000)" fill="white" fill-opacity="0"/>
		</clipPath>
		<clipPath id="clip19_15">
			<rect id="plus" rx="-0.500000" width="13.000000" height="12.000000" transform="translate(31.500000 9.500000)" fill="white" fill-opacity="0"/>
		</clipPath>
	</defs>
	<rect id="shopping-bag" rx="-0.500000" width="27.000000" height="30.000000" transform="translate(0.500000 0.500000)" fill="#FFFFFF" fill-opacity="0"/>
	<g clip-path="url(#clip19_12)">
		<path id="Vector" d="M2 7.33L2 26C2 26.7 2.28 27.38 2.78 27.88C3.28 28.38 3.95 28.66 4.66 28.66L23.33 28.66C24.04 28.66 24.71 28.38 25.21 27.88C25.71 27.38 26 26.7 26 26L26 7.33L22 2L6 2L2 7.33Z" stroke="#FFFFFF" stroke-opacity="1.000000" stroke-width="2.500000" stroke-linejoin="round"/>
		<path id="Vector" d="M2 7.33L26 7.33" stroke="#FFFFFF" stroke-opacity="1.000000" stroke-width="2.500000" stroke-linejoin="round" stroke-linecap="round"/>
		<path id="Vector" d="M19.33 12.66C19.33 14.08 18.77 15.43 17.77 16.43C16.77 17.43 15.41 18 14 18C12.58 18 11.22 17.43 10.22 16.43C9.22 15.43 8.66 14.08 8.66 12.66" stroke="#FFFFFF" stroke-opacity="1.000000" stroke-width="2.500000" stroke-linejoin="round" stroke-linecap="round"/>
	</g>
	<rect id="plus" rx="-0.500000" width="13.000000" height="12.000000" transform="translate(31.500000 9.500000)" fill="#FFFFFF" fill-opacity="0"/>
	<g clip-path="url(#clip19_15)">
		<path id="Vector" d="M38 10.66L38 20" stroke="#FFFFFF" stroke-opacity="1.000000" stroke-width="2.500000" stroke-linejoin="round" stroke-linecap="round"/>
		<path id="Vector" d="M33.33 15.33L42.66 15.33" stroke="#FFFFFF" stroke-opacity="1.000000" stroke-width="2.500000" stroke-linejoin="round" stroke-linecap="round"/>
	</g>
</svg>
