<svg width="86.000000" height="86.000000" viewBox="0 0 86 86" fill="none" xmlns="http://www.w3.org/2000/svg" xmlns:xlink="http://www.w3.org/1999/xlink">
	<desc>
			Created with Pixso.
	</desc>
	<defs/>
	<path id="Vector" d="M76.73 0L56.83 0C52.46 0 46.62 2.41 43.53 5.5L2.7 46.33C0.96 48.08 0 50.4 0 52.88C0 55.36 0.96 57.69 2.7 59.44L26.55 83.29C28.3 85.03 30.63 86 33.11 86C35.59 86 37.91 85.03 39.66 83.29L80.49 42.46C83.58 39.37 86 33.53 86 29.16L86 9.26C85.99 4.15 81.84 0 76.73 0ZM71.9 17.8C71.43 18.27 70.78 18.54 70.12 18.54C69.45 18.54 68.8 18.27 68.34 17.8C67.86 17.33 67.6 16.68 67.6 16.02C67.6 15.35 67.86 14.71 68.34 14.24C68.8 13.77 69.45 13.5 70.12 13.5C70.78 13.5 71.43 13.77 71.9 14.24C72.37 14.71 72.64 15.35 72.64 16.02C72.64 16.68 72.37 17.33 71.9 17.8Z" fill="#941B0C" fill-opacity="1.000000" fill-rule="nonzero"/>
</svg>
